<?xml version="1.0" encoding="UTF-8" standalone="no"?>
<!DOCTYPE svg PUBLIC "-//W3C//DTD SVG 1.1//EN" "http://www.w3.org/Graphics/SVG/1.1/DTD/svg11.dtd">
<svg width="100%" height="100%" viewBox="0 0 305 306" version="1.1" xmlns="http://www.w3.org/2000/svg" xmlns:xlink="http://www.w3.org/1999/xlink" xml:space="preserve" xmlns:serif="http://www.serif.com/" style="fill-rule:evenodd;clip-rule:evenodd;stroke-linejoin:round;stroke-miterlimit:2;">
    <g transform="matrix(1,0,0,1,-173.33329,-856.890387)">
        <g transform="matrix(1,0,0,1,39.151869,513.425195)">
            <g transform="matrix(0.967755,0,0,0.967755,-19.531166,-13.545126)">
                <path d="M188.83,443.3C171.72,439.78 158.83,424.63 158.83,406.49C158.83,385.74 175.67,368.91 196.42,368.91C214.56,368.91 229.72,381.79 233.23,398.9L279.59,398.9C283.11,381.8 298.26,368.92 316.4,368.92C334.55,368.92 349.7,381.8 353.22,398.9L399.6,398.9C403.12,381.8 418.27,368.92 436.41,368.92C457.16,368.92 474,385.76 474,406.5C474,424.64 461.11,439.8 444,443.31L444,489.69C461.11,493.2 474,508.36 474,526.5C474,544.64 461.11,559.8 444,563.31L444,609.68C461.11,613.19 474,628.35 474,646.49C474,667.23 457.16,684.07 436.41,684.07C418.27,684.07 403.11,671.18 399.6,654.07L353.22,654.07C349.71,671.19 334.55,684.08 316.4,684.08C298.26,684.08 283.1,671.19 279.59,654.07L233.23,654.07C229.72,671.18 214.56,684.06 196.42,684.06C175.67,684.06 158.83,667.22 158.83,646.48C158.83,628.34 171.72,613.18 188.83,609.66L188.83,563.3C171.72,559.79 158.83,544.63 158.83,526.49C158.83,508.34 171.72,493.19 188.83,489.68L188.83,443.3ZM436.41,381.5C450.21,381.5 461.41,392.7 461.41,406.5C461.41,420.29 450.21,431.49 436.41,431.49C422.62,431.49 411.41,420.29 411.41,406.5C411.41,392.7 422.62,381.5 436.41,381.5ZM196.42,501.49C210.22,501.49 221.42,512.69 221.42,526.49C221.42,540.28 210.22,551.48 196.42,551.48C182.62,551.48 171.42,540.28 171.42,526.49C171.42,512.69 182.62,501.49 196.42,501.49ZM316.4,501.5C330.2,501.5 341.4,512.71 341.4,526.5C341.4,540.3 330.2,551.5 316.4,551.5C302.61,551.5 291.4,540.3 291.4,526.5C291.4,512.71 302.61,501.5 316.4,501.5ZM204,563.3L204,609.66C208.75,610.64 213.17,612.51 217.09,615.09L285.02,547.16C282.43,543.25 280.56,538.83 279.59,534.08L233.23,534.08C230.22,548.74 218.66,560.29 204,563.3ZM316.4,621.49C330.2,621.49 341.4,632.7 341.4,646.49C341.4,660.29 330.2,671.49 316.4,671.49C302.61,671.49 291.4,660.29 291.4,646.49C291.4,632.7 302.61,621.49 316.4,621.49ZM353.22,638.91L399.6,638.91C400.57,634.16 402.44,629.74 405.03,625.83L337.08,557.88C333.17,560.46 328.75,562.34 324,563.31L324,609.68C338.65,612.69 350.21,624.25 353.22,638.91ZM428.83,609.68L428.83,563.31C414.17,560.3 402.61,548.74 399.6,534.08L353.22,534.08C352.25,538.83 350.38,543.24 347.8,547.15L415.75,615.1C419.66,612.52 424.08,610.65 428.83,609.68ZM428.83,489.69L428.83,443.31C424.08,442.34 419.66,440.46 415.74,437.88L347.79,505.83C350.37,509.75 352.25,514.17 353.22,518.92L399.6,518.92C402.61,504.26 414.17,492.7 428.83,489.69ZM279.59,414.07L233.23,414.07C232.26,418.82 230.39,423.24 227.81,427.15L295.76,495.1C299.67,492.53 304.09,490.66 308.83,489.69L308.83,443.31C294.16,440.31 282.59,428.74 279.59,414.07ZM196.42,381.49C210.22,381.49 221.42,392.69 221.42,406.49C221.42,420.28 210.22,431.48 196.42,431.48C182.62,431.48 171.42,420.28 171.42,406.49C171.42,392.69 182.62,381.49 196.42,381.49ZM233.24,638.91L279.59,638.91C282.6,624.24 294.17,612.68 308.83,609.68L308.83,563.32C304.08,562.34 299.66,560.47 295.74,557.89L227.81,625.82C230.39,629.73 232.26,634.16 233.24,638.91ZM399.59,414.07L353.22,414.07C350.22,428.73 338.66,440.29 324,443.31L324,489.69C328.74,490.67 333.16,492.53 337.07,495.11L405.02,427.16C402.44,423.24 400.57,418.82 399.59,414.07ZM204,443.3L204,489.68C218.67,492.69 230.23,504.25 233.24,518.92L279.59,518.92C280.56,514.16 282.44,509.74 285.03,505.82L217.08,437.87C213.17,440.45 208.75,442.32 204,443.3Z" style="fill:rgb(51,51,51);"/>
            </g>
        </g>
    </g>
</svg>
